# AST/ASF file generated using VICON BodyLanguage
# -----------------------------------------------
:version 1.10
:name VICON
:units
  mass 1.0
  length 0.45
  angle deg
:documentation
   .ast/.asf automatically generated from VICON data using
   VICON BodyBuilder and BodyLanguage model FoxedUp or BRILLIANT.MOD
:root
   order TX TY TZ RX RY RZ
   axis XYZ
   position 0 0 0  
   orientation 0 0 0 
:bonedata
  begin
     id 1 
     name lhipjoint
     direction 0.643272 -0.706573 0.294883 
     length 2.58915 
     axis 0 0 0  XYZ
  end
  begin
     id 2 
     name lfemur
     direction 0.34202 -0.939693 0  
     length 7.06802  
     axis 0 0 20  XYZ
    dof rx ry rz
    limits (-160.0 20.0)
           (-70.0 70.0)
           (-60.0 70.0)
  end
  begin
     id 3 
     name ltibia
     direction 0.34202 -0.939693 0   
     length 7.94147   
     axis 0 0 20   XYZ
    dof rx
    limits (-10.0 170.0)
  end
  begin
     id 4 
     name lfoot
     direction 0.0435058 -0.119531 0.991877   
     length 1.8399   
     axis -90 7.62852e-016 20   XYZ
    dof rx rz
    limits (-45.0 90.0)
           (-70.0 20.0)
  end
  begin
     id 5 
     name ltoes
     direction 1.53505e-011 -4.22157e-011 1   
     length 0.934412   
     axis -90 7.62852e-016 20   XYZ
    dof rx
    limits (-90.0 20.0)
  end
  begin
     id 6 
     name rhipjoint
     direction -0.636801 -0.711547 0.296959   
     length 2.57105  
     axis 0 0 0  XYZ 
  end
  begin
     id 7 
     name rfemur
     direction -0.34202 -0.939693 0   
     length 7.03285   
     axis 0 0 -20   XYZ
    dof rx ry rz
    limits (-160.0 20.0)
           (-70.0 70.0)
           (-70.0 60.0)
  end
  begin
     id 8 
     name rtibia
     direction -0.34202 -0.939693 0   
     length 7.99111   
     axis 0 0 -20   XYZ
    dof rx
    limits (-10.0 170.0)
 end
 begin
     id 9 
     name rfoot
     direction -0.0783088 -0.215152 0.973436   
     length 1.98785  
     axis -90 -7.62852e-016 -20   XYZ
    dof rx rz
    limits (-45.0 90.0)
           (-20.0 70.0)
  end
  begin
     id 10 
     name rtoes
     direction -1.53606e-011 -4.21943e-011 1   
     length 1.001   
     axis -90 -7.62852e-016 -20   XYZ
    dof rx
    limits (-90.0 20.0)
  end
  begin
     id 11 
     name lowerback
     direction 0.00141527 0.998403 -0.0564763   
     length 2.30486   
     axis 0 0 0   XYZ
    dof rx ry rz
    limits (-20.0 45.0)
           (-30.0 30.0)
           (-30.0 30.0)
  end
  begin
     id 12 
     name upperback
     direction 0.0125137 0.999915 0.00361315   
     length 2.30697   
     axis 0 0 0   XYZ
    dof rx ry rz
    limits (-20.0 45.0)
           (-30.0 30.0)
           (-30.0 30.0)
  end
  begin
     id 13 
     name thorax
     direction 0.0136417 0.999471 0.0295116   
     length 2.31005   
     axis 0 0 0   XYZ
    dof rx ry rz
    limits (-20.0 45.0)
           (-30.0 30.0)
           (-30.0 30.0)
  end
  begin
     id 14 
     name lowerneck
     direction 0.0766806 0.997047 0.00422047   
     length 1.68825   
     axis 0 0 0   XYZ
    dof rx ry rz
    limits (-20.0 45.0)
           (-30.0 30.0)
           (-30.0 30.0)
  end
  begin
     id 15 
     name upperneck
     direction -0.143512 0.985106 -0.0947088   
     length 1.69772   
     axis 0 0 0   XYZ
    dof rx ry rz
    limits (-20.0 45.0)
           (-30.0 30.0)
           (-30.0 30.0)
  end
  begin
     id 16
     name head
     direction -0.0539128 0.997849 -0.0372864  
     length 1.71187  
     axis 0 0 0   XYZ
    dof rx ry rz
    limits (-20.0 45.0)
           (-30.0 30.0)
           (-30.0 30.0)
  end
  begin
     id 17 
     name lclavicle
     direction 0.978251 0.207416 -0.00165765  
     length 3.35399  
     axis 0 0 0   XYZ
    dof ry rz
    limits (-20.0 10.0)
           (0.0 20.0)
  end
  begin
     id 18 
     name lhumerus
     direction 1 -4.48966e-011 -1.32191e-028   
     length 5.70706   
     axis 180 -30 -90   XYZ
    dof rx ry rz
    limits (-60.0 90.0)
           (-90.0 90.0)
           (-90.0 90.0)
  end
  begin
     id 19
     name lradius
     direction 1 -4.48976e-011 9.36106e-027   
     length 3.33243   
     axis 180 -30 -90   XYZ
    dof rx
    limits (-10.0 170.0)
  end
  begin
     id 20
     name lwrist
     direction 1 -4.48976e-011 1.1555e-026   
     length 1.66621   
     axis -5.7412e-015 90 90   XYZ
    dof ry
    limits (-180.0 0.0)
 end
  begin
     id 21 
     name lhand
     direction 1 -4.48939e-011 2.31113e-026   
     length 0.792687   
     axis -1.47463e-014 90 90   XYZ
    dof rx rz
    limits (-90.0 90.0)
           (-45.0 45.0)
  end
  begin
     id 22 
     name lfingers
     direction 1 -4.48866e-011 4.62274e-026   
     length 0.639085   
     axis -2.94925e-014 90 90   XYZ
    dof rx
    limits (0.0 90.0)
  end
  begin
     id 23
     name lthumb
     direction 0.707107 -6.34847e-011 0.707107   
     length 0.917601   
     axis -90 45 -6.68868e-015   XYZ
    dof rx rz
    limits (-45.0 45.0)
           (-45.0 45.0)
  end
  begin
     id 24 
     name rclavicle
     direction -0.981813 0.185514 0.0403428   
     length 3.47271  
     axis 0 0 0   XYZ 
    dof ry rz
    limits (-10.0 20.0)
           (-20.0 0.0)
  end
  begin
     id 25 
     name rhumerus
     direction -1 -4.48972e-011 -6.58544e-029  
     length 5.88176   
     axis 180 30 90   XYZ
    dof rx ry rz
    limits (-90.0 60.0)
           (-90.0 90.0)
           (-90.0 90.0)
  end
  begin
     id 26 
     name rradius
     direction -1 -4.48964e-011 8.36306e-027   
     length 3.28156   
     axis 180 30 90   XYZ
    dof rx
    limits (-10.0 170.0)
  end
  begin
     id 27 
     name rwrist
     direction -1 -4.48903e-011 1.15562e-026   
     length 1.64078   
     axis -5.7412e-015 -90 -90   XYZ
    dof ry
    limits (-180.0 0.0)
  end
  begin
     id 28
     name rhand
     direction -1 -4.49055e-011 2.31074e-026   
     length 0.863125   
     axis -1.47463e-014 -90 -90   XYZ
    dof rx rz
    limits (-90.0 90.0)
           (-45.0 45.0)
  end
  begin
     id 29
     name rfingers
     direction -1 -4.48994e-011 4.62188e-026   
     length 0.695873   
     axis -2.94925e-014 -90 -90   XYZ
    dof rx
    limits (0.0 90.0)
  end
  begin
     id 30
     name rthumb
     direction -0.707107 -6.35058e-011 0.707107   
     length 0.999139   
     axis -90 -45 6.68868e-015   XYZ
    dof rx rz
    limits (-45.0 45.0)
           (-45.0 45.0)
  end
:hierarchy
  begin
    root lhipjoint rhipjoint lowerback
    lhipjoint lfemur
    lfemur ltibia
    ltibia lfoot
    lfoot ltoes
    rhipjoint rfemur
    rfemur rtibia
    rtibia rfoot
    rfoot rtoes
    lowerback upperback
    upperback thorax
    thorax lowerneck lclavicle rclavicle
    lowerneck upperneck
    upperneck head
    lclavicle lhumerus
    lhumerus lradius
    lradius lwrist
    lwrist lhand lthumb
    lhand lfingers
    rclavicle rhumerus
    rhumerus rradius
    rradius rwrist
    rwrist rhand rthumb
    rhand rfingers
  end

#!OML:ASF \\Waltz\H\Terrain\Patient Classification 1\Animal2\Wednesday\Animal2.ASF
:FULLY-SPECIFIED
:DEGREES
69
root 1.73923 17.1778 -25.9377 7.08517 23.4764 7.76697
lowerback 6.72437 -1.00341 2.71791
upperback -0.946522 -1.32205 -4.65434
thorax -4.94565 -0.798465 -6.27783
lowerneck 10.9181 8.76861 14.0998
upperneck -11.7556 11.0059 -35.1892
head -2.13545 7.22757 -14.8053
rclavicle 1.2921e-014 -1.55052e-014
rhumerus -1.52402 24.7545 -75.2434
rradius 95.5989
rwrist -18.0187
rhand -7.55402 12.4128
rfingers 7.12502
rthumb 18.3379 -16.7428
lclavicle 1.2921e-014 -1.55052e-014
lhumerus 31.616 19.1021 30.1677
lradius 94.6632
lwrist 2.52233
lhand -53.7859 8.27138
lfingers 7.12502
lthumb -26.2184 36.4804
rfemur -19.8978 -3.10525 17.34
rtibia 46.1378
rfoot -31.3789 -8.89341
rtoes 33.372
lfemur -22.6609 -9.89246 -22.8881
ltibia 40.8912
lfoot -21.8289 -6.31714
ltoes -28.0372
70
root 1.71076 17.1851 -25.9185 6.9439 23.2876 7.3745
lowerback 6.61132 -0.85519 2.56845
upperback -0.842482 -1.12187 -4.38274
thorax -4.7356 -0.683356 -5.92239
lowerneck 11.2238 8.74688 14.4322
upperneck -11.4978 11.1186 -35.2133
head -2.06643 7.28205 -14.8856
rclavicle 5.26779e-015 3.53837e-014
rhumerus -1.4549 24.8693 -75.1008
rradius 95.2341
rwrist -16.8899
rhand -8.06314 12.9966
rfingers 7.12502
rthumb 17.8481 -16.2043
lclavicle 5.26779e-015 3.53837e-014
lhumerus 31.7406 19.0422 30.2105
lradius 94.3418
lwrist 1.91045
lhand -53.5876 8.33369
lfingers 7.12502
lthumb -26.0285 36.5707
rfemur -19.6423 -3.40389 17.8021
rtibia 45.5364
rfoot -31.1072 -8.48439
rtoes 33.5261
lfemur -23.0131 -9.66432 -22.5811
ltibia 41.5534
lfoot -22.0218 -5.30738
ltoes -29.0212
71
root 1.681 17.196 -25.9013 6.58286 23.101 6.74076
lowerback 6.68955 -0.734708 2.69903
upperback -0.711567 -0.933536 -4.07115
thorax -4.61506 -0.583485 -5.68459
lowerneck 11.2923 8.70243 14.7366
upperneck -11.2922 11.1601 -35.4234
head -1.97275 7.30006 -15.03
rclavicle -3.52843e-015 -2.10712e-014
rhumerus -1.08898 24.8188 -74.801
rradius 94.9413
rwrist -17.3303
rhand -7.58535 13.2357
rfingers 7.12502
rthumb 18.3078 -15.9228
lclavicle -3.52843e-015 -2.10712e-014
lhumerus 31.8624 19.0322 30.1404
lradius 94.0016
lwrist 1.67478
lhand -53.4762 8.62043
lfingers 7.12502
lthumb -25.9219 36.8731
rfemur -19.2237 -3.55601 18.5461
rtibia 44.9001
rfoot -30.8526 -8.36364
rtoes 33.124
lfemur -23.2469 -9.52424 -22.0164
ltibia 42.177
lfoot -22.0304 -4.80802
ltoes -28.2105
72
root 1.64546 17.209 -25.8796 6.17334 22.8828 6.11558
lowerback 6.83286 -0.651163 2.73493
upperback -0.576258 -0.801135 -3.73886
thorax -4.5329 -0.509706 -5.36533
lowerneck 11.2034 8.69545 14.9164
upperneck -11.0491 11.2322 -35.5747
head -1.84415 7.31953 -15.1045
rclavicle -2.21893e-014 -1.39149e-015
rhumerus -0.724161 25.0454 -74.5779
rradius 94.7086
rwrist -17.5017
rhand -7.59209 12.7515
rfingers 7.12502
rthumb 18.3013 -16.4076
lclavicle -2.21893e-014 -1.39149e-015
lhumerus 31.781 19.1265 29.9201
lradius 93.7059
lwrist 1.57699
lhand -53.4881 8.70571
lfingers 7.12502
lthumb -25.9332 36.9567
rfemur -18.7121 -3.6065 19.3118
rtibia 44.2321
rfoot -30.5174 -8.20666
rtoes 32.8663
lfemur -23.4259 -9.19171 -21.4589
ltibia 42.747
lfoot -22.2155 -4.50117
ltoes -27.8646
73
root 1.61586 17.2241 -25.8575 5.95381 22.5456 5.51221
lowerback 6.64881 -0.547143 2.70286
upperback -0.441994 -0.651007 -3.40062
thorax -4.26574 -0.421866 -5.00332
lowerneck 10.9521 8.81727 14.8632
upperneck -10.6109 11.4935 -35.3595
head -1.62651 7.39358 -14.9262
rclavicle -3.04886e-014 -2.88238e-015
rhumerus -0.700012 25.5869 -74.7341
rradius 94.8255
rwrist -16.8737
rhand -8.33781 11.3742
rfingers 7.12502
rthumb 17.5838 -17.8506
lclavicle -3.04886e-014 -2.88238e-015
lhumerus 31.6244 19.3561 29.552
lradius 93.2883
lwrist 1.5406
lhand -53.0209 7.77482
lfingers 7.12502
lthumb -25.4858 36.0906
rfemur -18.3925 -3.7142 20.0048
rtibia 43.5217
rfoot -29.9823 -8.03601
rtoes 32.102
lfemur -23.7683 -8.75439 -20.9543
ltibia 43.2562
lfoot -22.408 -4.4402
ltoes -27.566
74
root 1.59631 17.2459 -25.8401 5.85721 22.202 4.91258
lowerback 6.33788 -0.442524 2.83382
upperback -0.312303 -0.492567 -3.10403
thorax -3.93589 -0.333412 -4.77956
lowerneck 10.4521 9.03066 14.6353
upperneck -9.95461 11.8967 -34.8578
head -1.30304 7.49465 -14.5446
rclavicle -4.50123e-014 1.59028e-015
rhumerus -0.512069 25.9095 -74.8009
rradius 94.9049
rwrist -16.9265
rhand -8.39271 10.5953
rfingers 7.12502
rthumb 17.5309 -18.6343
lclavicle -4.50123e-014 1.59028e-015
lhumerus 31.5586 19.5208 29.1142
lradius 92.7626
lwrist 1.4453
lhand -52.8813 7.5878
lfingers 7.12502
lthumb -25.3521 35.9226
rfemur -18.209 -3.92114 20.6371
rtibia 42.7754
rfoot -29.4687 -7.65819
rtoes 31.7393
lfemur -24.1977 -8.46208 -20.4778
ltibia 43.713
lfoot -22.3333 -4.5252
ltoes -26.0859
75
root 1.57758 17.2692 -25.8241 5.76833 21.9196 4.48975
lowerback 6.21003 -0.376879 2.88218
upperback -0.202467 -0.393043 -2.84429
thorax -3.73707 -0.276188 -4.54243
lowerneck 10.4326 9.13506 14.5702
upperneck -9.80497 12.0743 -34.6936
head -1.22951 7.56568 -14.4353
rclavicle -4.56894e-014 1.39149e-015
rhumerus 0.14499 25.997 -74.4902
rradius 94.4762
rwrist -17.8253
rhand -7.78814 11.1299
rfingers 7.12502
rthumb 18.1127 -18.0468
lclavicle -4.56894e-014 1.39149e-015
lhumerus 31.4471 19.5272 28.901
lradius 92.3218
lwrist 1.18452
lhand -53.2337 8.58353
lfingers 7.12502
lthumb -25.6896 36.87
rfemur -17.9218 -4.23676 21.0802
rtibia 41.9897
rfoot -29.0367 -7.05016
rtoes 32.4302
lfemur -24.554 -8.18668 -20.2133
ltibia 44.1342
lfoot -22.0874 -4.17459
ltoes -26.4313
